<?xml version="1.0" standalone="no"?>
<!DOCTYPE svg PUBLIC "-//W3C//DTD SVG 20010904//EN"
 "http://www.w3.org/TR/2001/REC-SVG-20010904/DTD/svg10.dtd">
<svg version="1.0" xmlns="http://www.w3.org/2000/svg"
 width="1920.000000pt" height="1794.000000pt" viewBox="0 0 1920.000000 1794.000000"
 preserveAspectRatio="xMidYMid meet">

<g transform="translate(0.000000,1794.000000) scale(0.100000,-0.100000)"
fill="#000000" stroke="none">
<path d="M16035 17120 c-275 -21 -952 -73 -1505 -114 -2052 -155 -2631 -198
-3725 -281 -616 -47 -1511 -114 -1990 -150 -478 -36 -1194 -90 -1590 -120
-396 -30 -812 -62 -925 -70 -1816 -135 -2696 -203 -2810 -216 -237 -27 -410
-128 -494 -288 -82 -158 -87 -242 -47 -876 17 -269 63 -992 101 -1605 39 -613
88 -1398 110 -1744 22 -345 40 -643 40 -661 l0 -33 -113 5 c-191 10 -333 -31
-436 -123 -57 -51 -120 -168 -146 -269 -25 -96 -14 114 -170 -3500 -30 -704
-64 -1487 -75 -1740 -105 -2407 -104 -2381 -77 -2485 44 -166 138 -284 284
-357 149 -75 91 -68 2013 -253 344 -34 1203 -117 1910 -186 707 -68 1562 -151
1900 -184 1305 -126 3011 -292 3350 -325 195 -19 425 -41 510 -49 85 -9 367
-36 625 -61 2862 -278 2936 -285 3042 -285 216 0 358 71 457 228 40 64 76 183
81 270 3 42 7 1447 10 3121 2 1675 8 3048 12 3051 5 4 169 21 365 39 222 20
387 39 435 51 252 64 396 224 434 480 15 103 14 110 -106 2765 -8 182 -60
1334 -115 2560 -127 2835 -128 2863 -145 2967 -24 143 -64 228 -149 316 -62
65 -109 93 -212 128 -121 41 -251 40 -849 -6z m-8752 -4337 c-7 -2 -19 -2 -25
0 -7 3 -2 5 12 5 14 0 19 -2 13 -5z m-183 -17 c0 -2 -13 -9 -30 -15 -35 -12
-41 -5 -7 9 25 10 37 12 37 6z"/>
</g>
</svg>
